<svg width="112" height="32" viewBox="0 0 112 32" fill="none" xmlns="http://www.w3.org/2000/svg">
<path d="M32 10.7925H21.1576V0H10.7671C10.7671 5.96226 5.94824 10.7925 0 10.7925V21.2075H10.7671V32H21.1576C21.1576 26.0377 26.0518 21.2075 32 21.2075V10.7925Z" fill="#F5AA21"/>
<path d="M41.9176 25V7.54545H48.1392C49.4915 7.54545 50.6136 7.77841 51.5057 8.24432C52.4034 8.71023 53.0739 9.35511 53.517 10.179C53.9602 10.9972 54.1818 11.9432 54.1818 13.017C54.1818 14.0852 53.9574 15.0256 53.5085 15.8381C53.0653 16.6449 52.3949 17.2727 51.4972 17.7216C50.6051 18.1705 49.483 18.3949 48.1307 18.3949H43.4176V16.1278H47.892C48.7443 16.1278 49.4375 16.0057 49.9716 15.7614C50.5114 15.517 50.9062 15.1619 51.1562 14.696C51.4062 14.2301 51.5312 13.6705 51.5312 13.017C51.5312 12.358 51.4034 11.7869 51.1477 11.304C50.8977 10.821 50.5028 10.4517 49.9631 10.196C49.429 9.93466 48.7273 9.80398 47.858 9.80398H44.5511V25H41.9176ZM50.5341 17.125L54.8466 25H51.8466L47.6193 17.125H50.5341ZM62.6598 25.2642C61.37 25.2642 60.2592 24.9886 59.3274 24.4375C58.4013 23.8807 57.6854 23.0994 57.1797 22.0938C56.6797 21.0824 56.4297 19.8977 56.4297 18.5398C56.4297 17.1989 56.6797 16.017 57.1797 14.9943C57.6854 13.9716 58.3899 13.1733 59.2933 12.5994C60.2024 12.0256 61.2649 11.7386 62.4808 11.7386C63.2195 11.7386 63.9354 11.8608 64.6286 12.1051C65.3217 12.3494 65.9439 12.733 66.495 13.2557C67.0462 13.7784 67.4808 14.4574 67.799 15.2926C68.1172 16.1222 68.2763 17.1307 68.2763 18.3182V19.2216H57.87V17.3125H65.7791C65.7791 16.642 65.6428 16.0483 65.37 15.5312C65.0973 15.0085 64.7138 14.5966 64.2195 14.2955C63.7308 13.9943 63.157 13.8438 62.4979 13.8438C61.782 13.8438 61.157 14.0199 60.6229 14.3722C60.0945 14.7187 59.6854 15.1733 59.3956 15.7358C59.1115 16.2926 58.9695 16.8977 58.9695 17.5511V19.0426C58.9695 19.9176 59.1229 20.6619 59.4297 21.2756C59.7422 21.8892 60.1768 22.358 60.7337 22.6818C61.2905 23 61.9411 23.1591 62.6854 23.1591C63.1683 23.1591 63.6087 23.0909 64.0064 22.9545C64.4041 22.8125 64.7479 22.6023 65.0376 22.3239C65.3274 22.0455 65.549 21.7017 65.7024 21.2926L68.1143 21.7273C67.9212 22.4375 67.5746 23.0597 67.0746 23.5938C66.5803 24.1222 65.9581 24.5341 65.2081 24.8295C64.4638 25.1193 63.6143 25.2642 62.6598 25.2642ZM73.652 17.2273V25H71.1037V11.9091H73.5497V14.0398H73.7116C74.0128 13.3466 74.4844 12.7898 75.1264 12.3693C75.7741 11.9489 76.5895 11.7386 77.5724 11.7386C78.4645 11.7386 79.2457 11.9261 79.9162 12.3011C80.5866 12.6705 81.1065 13.2216 81.4759 13.9545C81.8452 14.6875 82.0298 15.5937 82.0298 16.6733V25H79.4815V16.9801C79.4815 16.0312 79.2344 15.2898 78.7401 14.7557C78.2457 14.2159 77.5668 13.946 76.7031 13.946C76.1122 13.946 75.5866 14.0739 75.1264 14.3295C74.6719 14.5852 74.3111 14.9602 74.044 15.4545C73.7827 15.9432 73.652 16.5341 73.652 17.2273ZM90.9616 25.2642C89.7344 25.2642 88.6634 24.983 87.7486 24.4205C86.8338 23.858 86.1236 23.071 85.6179 22.0597C85.1122 21.0483 84.8594 19.8665 84.8594 18.5142C84.8594 17.1562 85.1122 15.9687 85.6179 14.9517C86.1236 13.9347 86.8338 13.1449 87.7486 12.5824C88.6634 12.0199 89.7344 11.7386 90.9616 11.7386C92.1889 11.7386 93.2599 12.0199 94.1747 12.5824C95.0895 13.1449 95.7997 13.9347 96.3054 14.9517C96.8111 15.9687 97.0639 17.1562 97.0639 18.5142C97.0639 19.8665 96.8111 21.0483 96.3054 22.0597C95.7997 23.071 95.0895 23.858 94.1747 24.4205C93.2599 24.983 92.1889 25.2642 90.9616 25.2642ZM90.9702 23.125C91.7656 23.125 92.4247 22.9148 92.9474 22.4943C93.4702 22.0739 93.8565 21.5142 94.1065 20.8153C94.3622 20.1165 94.4901 19.3466 94.4901 18.5057C94.4901 17.6705 94.3622 16.9034 94.1065 16.2045C93.8565 15.5 93.4702 14.9347 92.9474 14.5085C92.4247 14.0824 91.7656 13.8693 90.9702 13.8693C90.169 13.8693 89.5043 14.0824 88.9759 14.5085C88.4531 14.9347 88.0639 15.5 87.8082 16.2045C87.5582 16.9034 87.4332 17.6705 87.4332 18.5057C87.4332 19.3466 87.5582 20.1165 87.8082 20.8153C88.0639 21.5142 88.4531 22.0739 88.9759 22.4943C89.5043 22.9148 90.169 23.125 90.9702 23.125ZM110.662 11.9091L105.915 25H103.188L98.4318 11.9091H101.168L104.483 21.983H104.619L107.926 11.9091H110.662Z" fill="#070707"/>
</svg>
